<?xml version="1.0" standalone="no"?><!DOCTYPE svg PUBLIC "-//W3C//DTD SVG 1.1//EN" "http://www.w3.org/Graphics/SVG/1.1/DTD/svg11.dtd"><svg t="1611731118613" class="icon" viewBox="0 0 1027 1024" version="1.1" xmlns="http://www.w3.org/2000/svg" p-id="3087" xmlns:xlink="http://www.w3.org/1999/xlink" width="200.5859375" height="200"><defs><style type="text/css"></style></defs><path d="M961.8432 425.472H226.6624L536.1664 114.2784a64.0512 64.0512 0 0 0 0-90.112 63.232 63.232 0 0 0-89.6 0L16.4864 456.448a61.44 61.44 0 0 0-15.7184 29.6448l-0.768 3.0208 0.768 3.072a60.9792 60.9792 0 0 0 15.6672 29.5936l430.08 432.2304a62.8224 62.8224 0 0 0 44.9536 18.7904 63.3344 63.3344 0 0 0 63.232-63.5904 63.3856 63.3856 0 0 0-18.4832-45.056L226.6624 552.96h735.1808a63.6928 63.6928 0 0 0 0-127.488z" p-id="3088"></path></svg>