<?xml version="1.0" standalone="no"?><!DOCTYPE svg PUBLIC "-//W3C//DTD SVG 1.1//EN" "http://www.w3.org/Graphics/SVG/1.1/DTD/svg11.dtd"><svg t="1606462662504" class="icon" viewBox="0 0 1024 1024" version="1.1" xmlns="http://www.w3.org/2000/svg" p-id="883" xmlns:xlink="http://www.w3.org/1999/xlink" width="200" height="200"><defs><style type="text/css"></style></defs><path d="M19.34222222 350.89066667l389.91644446 230.05866666c31.97155556 19.22844446 67.12888889 28.78577779 102.28622218 28.7857778s70.31466667-9.55733333 102.28622227-28.7857778l389.91644442-230.05866666c22.41422223-12.74311113 25.60000003-47.90044446 0-63.94311112L604.16 31.28888887c-28.78577779-19.22844446-60.75733334-28.78577779-92.7288889-28.78577776s-63.94311111 9.55733333-92.72888888 28.78577779L19.34222222 286.94755555c-25.60000003 16.04266669-22.30044445 51.2 0 63.94311112z m434.63111111-268.51555556c15.92888889-9.55733333 35.15733334-15.92888889 57.57155553-15.92888889 22.41422223 0 41.5288889 6.37155555 57.57155559 15.92888889l361.13066666 233.24444444-351.57333333 207.75822223c-22.41422223 12.74311113-44.71466668 19.22844446-70.31466667 19.22844445s-47.90044446-6.37155555-70.31466666-19.22844445L86.47111111 315.73333332l367.50222222-233.35822221zM16.15644445 545.79200001L409.25866666 791.89333333c31.97155556 19.22844446 67.12888889 28.78577779 102.2862222 28.7857778s70.31466667-9.55733333 102.28622227-28.7857778L1006.93333333 545.79200001c9.55733333-6.37155555 15.92888889-15.92888889 15.92888889-25.60000001 0-25.60000003-28.78577779-41.5288889-47.90044445-25.60000001L581.85955555 740.80711113c-22.41422223 12.74311113-44.71466668 19.22844446-70.31466665 19.22844442s-47.90044446-6.37155555-70.31466668-19.22844445L48.12799999 491.52c-19.22844446-15.92888889-47.90044446 0-47.90044444 25.60000001 0 12.74311113 6.37155555 22.30044445 15.9288889 28.67199998z m958.80533332 150.18666665L581.85955555 942.08c-22.41422223 12.74311113-44.71466668 19.22844446-70.31466665 19.22844446s-47.90044446-6.37155555-70.31466668-19.22844446L48.12799999 695.97866668c-19.22844446-15.92888889-47.90044446 0-47.90044444 25.59999999 0 9.55733333 6.37155555 22.41422223 15.9288889 25.59999999L409.25866666 993.28c31.97155556 19.22844446 67.12888889 28.78577779 102.2862222 28.7857778s70.31466667-9.55733333 102.28622227-28.7857778L1006.93333333 747.17866669c9.55733333-6.37155555 15.92888889-15.92888889 15.92888889-25.60000002 0-25.60000003-28.78577779-41.5288889-47.90044445-25.60000001z" p-id="884"></path></svg>