<?xml version="1.0" standalone="no"?><!DOCTYPE svg PUBLIC "-//W3C//DTD SVG 1.1//EN" "http://www.w3.org/Graphics/SVG/1.1/DTD/svg11.dtd"><svg t="1606448499225" class="icon" viewBox="0 0 1024 1024" version="1.1" xmlns="http://www.w3.org/2000/svg" p-id="1220" xmlns:xlink="http://www.w3.org/1999/xlink" width="200" height="200"><defs><style type="text/css"></style></defs><path d="M530.6590625 476.06937501c42.6665625-32.085 70.2009375-83.17125 70.2009375-140.5153125 0-96.939375-78.8484375-175.786875-175.786875-175.786875S249.28625 238.61562501 249.28625 335.55406251c0 57.3440625 27.6478125 108.4303125 70.2009375 140.5153125-38.570625 14.6765625-73.9546875 37.546875-104.1065625 67.584375-56.0934375 56.0934375-86.9259375 130.5028125-86.9259375 209.69343749 0 16.610625 0 34.1334375 0.114375 50.4028125 0.114375 15.01875 12.2878125 27.193125 27.3065625 27.193125h538.2834375c15.01875 0 27.3065625-12.174375 27.3065625-27.193125v-50.2903125c0-79.18875-30.834375-153.714375-86.8134375-209.69343749-30.0365625-30.1509375-65.4215625-53.02125-103.993125-67.69781251zM303.786875 335.6684375c0-66.7865625 54.38625-121.1728125 121.1728125-121.17281249s121.1728125 54.38625 121.1728125 121.17281249-54.38625 121.1728125-121.1728125 121.1728125-121.1728125-54.38625-121.1728125-121.1728125z m363.178125 418.246875v22.41375001H183.0678125v-22.86937501c0-133.3471875 108.54375-241.8909375 241.8909375-241.89093749s241.8909375 108.54375 241.8909375 241.89093749v0.4546875z" p-id="1221"></path><path d="M829.6671875 560.1509375c-28.216875-37.888125-65.6503125-68.608125-107.86125-89.3146875 12.0609375-10.809375 22.528125-23.325 31.1746875-37.09125 17.2940625-27.534375 26.3971875-59.3915625 26.3971875-91.93312499 0-38.4571875-12.2878125-74.8659375-35.6128125-105.24468751-22.528125-29.469375-54.38625-51.3140625-89.8846875-61.44-12.0609375-3.526875-24.69 3.526875-28.1034375 15.586875-3.526875 12.0609375 3.526875 24.69 15.586875 28.1034375 54.49875 15.70125 92.50125 66.219375 92.50125 122.99437501 0 48.46875-26.8509375 92.16-70.0865625 114.11906249-8.191875 4.2103125-13.0846875 12.97125-12.4021875 22.186875 0.796875 9.215625 7.05375 17.0671875 15.8146875 19.7971875 104.9034375 32.881875 175.4446875 129.024375 175.4446875 239.0465625v50.85937501c0 12.5146875 10.1259375 22.755 22.6415625 22.86937499h0.114375c12.5146875 0 22.755-10.1259375 22.755-22.64156249V736.96250001c0.114375-64.2853125-20.139375-125.383125-58.4821875-176.810625z" p-id="1222"></path></svg>