<?xml version="1.0" standalone="no"?><!DOCTYPE svg PUBLIC "-//W3C//DTD SVG 1.1//EN" "http://www.w3.org/Graphics/SVG/1.1/DTD/svg11.dtd"><svg t="1606463174557" class="icon" viewBox="0 0 1024 1024" version="1.1" xmlns="http://www.w3.org/2000/svg" p-id="1012" xmlns:xlink="http://www.w3.org/1999/xlink" width="200" height="200"><defs><style type="text/css"></style></defs><path d="M361.81333333 614.4c-163.84 0-293.54666667-129.70666667-293.54666666-293.54666667C68.26666667 163.84 197.97333333 34.13333333 361.81333333 34.13333333s293.54666667 129.70666667 293.54666667 293.54666667c0 157.01333333-136.53333333 286.72-293.54666667 286.72z m0-512C238.93333333 102.4 136.53333333 204.8 136.53333333 327.68c0 122.88 102.4 225.28 225.28 225.28 122.88 0 225.28-102.4 225.28-225.28C587.09333333 204.8 484.69333333 102.4 361.81333333 102.4z m0 0" p-id="1013"></path><path d="M689.49333333 989.86666667c-6.82666667 0-20.48-6.82666667-20.48-6.82666667-6.82666667-6.82666667-6.82666667-13.65333333-6.82666666-20.48 0-163.84-129.70666667-293.54666667-293.54666667-293.54666667s-293.54666667 129.70666667-293.54666667 293.54666667c-6.82666667 13.65333333-20.48 27.30666667-40.96 27.30666667s-34.13333333-13.65333333-34.13333333-34.13333334c0-197.97333333 163.84-361.81333333 361.81333333-361.81333333s361.81333333 163.84 361.81333334 361.81333333c0 20.48-13.65333333 34.13333333-34.13333334 34.13333334z m-68.26666666-361.81333334c-20.48 0-34.13333333-13.65333333-34.13333334-34.13333333s13.65333333-34.13333333 34.13333334-34.13333333c122.88 0 225.28-102.4 225.28-225.28 0-122.88-102.4-225.28-225.28-225.28-13.65333333 0-27.30666667-6.82666667-34.13333334-13.65333334-6.82666667-13.65333333-6.82666667-20.48 0-34.13333333s20.48-13.65333333 27.30666667-13.65333333c163.84 0 293.54666667 129.70666667 293.54666667 293.54666666 0 157.01333333-129.70666667 286.72-286.72 286.72z m0 0" p-id="1014"></path><path d="M989.86666667 983.04c-6.82666667 0-20.48-6.82666667-20.48-6.82666667-6.82666667-6.82666667-6.82666667-13.65333333-6.82666667-20.48 0-191.14666667-136.53333333-320.85333333-341.33333333-320.85333333-20.48 0-34.13333333-13.65333333-34.13333334-34.13333333s13.65333333-34.13333333 34.13333334-34.13333334c109.22666667 0 211.62666667 34.13333333 286.72 102.4 34.13333333 34.13333333 68.26666667 75.09333333 88.74666666 122.88 20.48 47.78666667 34.13333333 102.4 34.13333334 157.01333334 0 6.82666667-6.82666667 20.48-6.82666667 20.48-13.65333333 13.65333333-27.30666667 13.65333333-34.13333333 13.65333333z m0 0" p-id="1015"></path></svg>