<?xml version="1.0" standalone="no"?><!DOCTYPE svg PUBLIC "-//W3C//DTD SVG 1.1//EN" "http://www.w3.org/Graphics/SVG/1.1/DTD/svg11.dtd"><svg t="1611565669535" class="icon" viewBox="0 0 1024 1024" version="1.1" xmlns="http://www.w3.org/2000/svg" p-id="1149" xmlns:xlink="http://www.w3.org/1999/xlink" width="200" height="200"><defs><style type="text/css"></style></defs><path d="M948.56533333 128.68266667c-6.71288889-6.03022222-15.70133333-8.98844445-24.68977778-8.07822222-2.38933333 0.34133333-248.832 23.89333333-389.80266666-111.04711112-12.40177778-11.83288889-31.97155555-11.83288889-44.37333334 0.11377778-138.80888889 134.82666667-387.18577778 111.16088889-389.68888888 110.93333334-8.98844445-0.91022222-17.97688889 2.048-24.68977778 8.07822222-6.71288889 6.03022222-10.58133333 14.67733333-10.58133334 23.66577778v239.50222222c0 518.25777778 435.31377778 628.84977778 439.63733334 629.87377778 4.89244445 1.25155555 10.01244445 1.25155555 14.90488889 0 4.43733333-1.024 439.63733333-111.72977778 439.63733333-629.87377778V152.34844445c0.22755555-8.98844445-3.64088889-17.63555555-10.35377778-23.66577778z m-53.36177778 263.28177778c0 436.45155555-327.56622222 549.77422222-383.31733333 565.81688888C456.02133333 941.62488889 128.56888889 828.30222222 128.56888889 391.96444445V186.14044445c75.66222222 2.16177778 255.65866667-5.34755555 383.43111111-110.81955556 128.91022222 105.35822222 307.99644445 112.86755555 383.20355555 110.81955556v205.824z m0 0" fill="#666666" p-id="1150"></path><path d="M667.648 377.96977778c0-91.36355555-74.29688889-165.66044445-165.66044445-165.66044445s-165.66044445 74.29688889-165.66044444 165.66044445c0 83.85422222 62.80533333 152.576 143.70133334 163.49866667v193.87733333c0 17.63555555 14.336 31.97155555 31.97155555 31.97155555 17.63555555 0 31.97155555-14.336 31.97155555-31.97155555v-63.82933333h63.82933334c17.52177778-0.11377778 31.744-14.336 31.744-31.97155556 0-17.52177778-14.22222222-31.85777778-31.744-31.97155556H543.85777778v-69.97333333c70.99733333-18.65955555 123.79022222-82.83022222 123.79022222-159.63022222z m-267.49155555 0c0-56.20622222 45.62488889-101.83111111 101.8311111-101.83111111s101.83111111 45.62488889 101.83111112 101.83111111-45.73866667 101.83111111-101.83111112 101.83111111c-56.20622222 0-101.83111111-45.73866667-101.8311111-101.83111111z m0 0" fill="#666666" p-id="1151"></path></svg>