<?xml version="1.0" standalone="no"?><!DOCTYPE svg PUBLIC "-//W3C//DTD SVG 1.1//EN" "http://www.w3.org/Graphics/SVG/1.1/DTD/svg11.dtd"><svg t="1611565676026" class="icon" viewBox="0 0 1024 1024" version="1.1" xmlns="http://www.w3.org/2000/svg" p-id="1276" xmlns:xlink="http://www.w3.org/1999/xlink" width="200" height="200"><defs><style type="text/css"></style></defs><path d="M666.726 657.357c33.024 0 59.75-26.624 59.75-59.495 0-32.87-26.726-59.494-59.75-59.494-32.972 0-59.75 26.624-59.75 59.494 0 32.87 26.778 59.495 59.75 59.495z m343.552-160.666a380.416 380.416 0 0 1 0.103 202.035 84.992 84.992 0 0 0-34.253-7.168 87.04 87.04 0 0 0-76.698 46.746c-3.328 6.246-33.28 70.502 24.167 114.995-34.407 52.224-99.943 83.2-170.087 101.223-5.222-44.544-42.086-79.053-86.732-79.053-44.698 0-81.51 34.509-86.784 79.053a361.984 361.984 0 0 1-170.087-101.223c57.651-44.697 26.522-110.336 26.522-110.336a87.296 87.296 0 0 0-79.002-51.558 85.376 85.376 0 0 0-34.304 7.168 380.058 380.058 0 0 1 0.154-201.933c10.496 4.608 22.016 7.066 34.15 7.066 48.23 0 87.347-40.244 87.347-89.908 0-29.235-13.568-55.296-34.56-71.68a361.472 361.472 0 0 1 169.78-100.864c5.273 44.493 42.086 79.002 86.784 79.002 44.646 0 81.51-34.509 86.732-79.053 51.866 13.312 120.832 48.845 169.882 100.967a90.624 90.624 0 0 0-34.662 71.68c0 49.715 39.116 89.958 87.398 89.958 12.134 0 23.654-2.56 34.15-7.117z m-46.182 139.776c1.587-12.697 1.638-64.512 0-77.568a136.397 136.397 0 0 1-112.691-70.553 138.445 138.445 0 0 1-2.15-129.383 298.547 298.547 0 0 0-66.663-38.81c-62.362 71.68-165.786 82.433-229.53 0a298.291 298.291 0 0 0-66.56 38.81c18.381 36.045 23.04 86.733-4.608 132.199a140.237 140.237 0 0 1-112.588 67.072c-1.69 13.158-1.588 66.662 0 79.257C416 639.795 457.42 665.14 480.973 702.67c29.184 46.438 23.654 98.201 5.325 133.99a297.377 297.377 0 0 0 66.764 38.912c59.085-77.67 154.727-81.203 229.53 0a298.086 298.086 0 0 0 66.765-38.912 138.394 138.394 0 0 1 4.761-134.297 136.294 136.294 0 0 1 109.978-65.895z m-297.37-157.593a118.938 118.938 0 0 1 118.887 118.988 118.938 118.938 0 1 1-118.887-118.988zM0 518.81v-59.495h218.112v59.495H0z m0-356.916V102.4h951.808v59.494H0z m0 713.882v-59.494h277.606v59.494H0z" p-id="1277"></path></svg>