<?xml version="1.0" standalone="no"?><!DOCTYPE svg PUBLIC "-//W3C//DTD SVG 1.1//EN" "http://www.w3.org/Graphics/SVG/1.1/DTD/svg11.dtd"><svg t="1606448502584" class="icon" viewBox="0 0 1024 1024" version="1.1" xmlns="http://www.w3.org/2000/svg" p-id="1350" xmlns:xlink="http://www.w3.org/1999/xlink" width="200" height="200"><defs><style type="text/css"></style></defs><path d="M177.51780701 402.6173706l264.72759247 156.1946869c21.70658112 13.05484772 45.57609558 19.54364777 69.44561004 19.54364777s47.73902893-6.48880005 69.44561005-19.54364777l264.72759246-156.1946869c15.21778107-8.6517334 17.38071443-32.52124787 0-43.41316222L574.5705719 185.62880706c-19.54364777-13.05484772-41.25022888-19.54364777-62.95681-19.54364776s-43.41316223 6.48880005-62.95681 19.54364777L177.51780701 359.20420838c-17.38071443 10.89191438-15.14053344 34.76142883 0 43.41316222z m295.08590698-182.30438232c10.81466675-6.48880005 23.86951447-10.81466675 39.08729553-10.81466675 15.21778107 0 28.19538117 4.3258667 39.08729553 10.81466675l245.18394471 158.35762024-238.69514466 141.05415344c-15.21778107 8.6517334-30.35831452 13.05484772-47.73902893 13.05484773s-32.52124787-4.3258667-47.73902893-13.05484773L223.09390258 378.74785614l249.50981141-158.43486786zM175.35487365 534.94254303L442.24539947 702.02914429c21.70658112 13.05484772 45.57609558 19.54364777 69.44561005 19.54364777s47.73902893-6.48880005 69.44561005-19.54364777L848.02714539 534.94254303c6.48880005-4.3258667 10.81466675-10.81466675 10.81466674-17.38071441 0-17.38071443-19.54364777-28.19538117-32.52124786-17.38071443L559.43003846 667.34496308c-15.21778107 8.6517334-30.35831452 13.05484772-47.73902893 13.05484771s-32.52124787-4.3258667-47.73902894-13.05484772L197.06145477 498.09542847c-13.05484772-10.81466675-32.52124787 0-32.52124786 17.38071442 0 8.6517334 4.3258667 15.14053344 10.81466674 19.46640013z m650.96569062 101.9668579L559.43003846 803.99600219c-15.21778107 8.6517334-30.35831452 13.05484772-47.73902893 13.05484773s-32.52124787-4.3258667-47.73902894-13.05484773L197.06145477 636.90940094c-13.05484772-10.81466675-32.52124787 0-32.52124786 17.38071442 0 6.48880005 4.3258667 15.21778107 10.81466674 17.38071441L442.24539947 838.75743103c21.70658112 13.05484772 45.57609558 19.54364777 69.44561005 19.54364777s47.73902893-6.48880005 69.44561005-19.54364777L848.02714539 671.67082978c6.48880005-4.3258667 10.81466675-10.81466675 10.81466674-17.38071442 0-17.38071443-19.54364777-28.19538117-32.52124786-17.38071443z" p-id="1351"></path></svg>