<?xml version="1.0" standalone="no"?><!DOCTYPE svg PUBLIC "-//W3C//DTD SVG 1.1//EN" "http://www.w3.org/Graphics/SVG/1.1/DTD/svg11.dtd"><svg t="1606463184525" class="icon" viewBox="0 0 1024 1024" version="1.1" xmlns="http://www.w3.org/2000/svg" p-id="1278" xmlns:xlink="http://www.w3.org/1999/xlink" width="200" height="200"><defs><style type="text/css"></style></defs><path d="M512 449.98090791c124.60126283 0 225.95542112-101.59547771 225.95542112-226.35762016C737.95542112 98.7807055 636.60126283-2.81477221 512-2.81477221S286.04457888 98.7807055 286.04457888 223.54284795c0 124.84258225 101.43459808 226.43805996 225.95542112 226.43805996z m0-372.19499235c80.19848873 0 145.51561297 65.39756404 145.51561297 145.75693239S592.19848873 369.38022013 512 369.38022013s-145.51561297-65.39756404-145.51561297-145.83737218c0-80.35936835 65.31712425-145.75693238 145.51561297-145.75693239zM430.27315491 946.21408444H77.62503595v-76.17649833c0-123.55554532 100.38888058-224.10530554 223.70310648-224.10530551h321.03527437c22.20138704 0 40.21990407-18.01851702 40.21990407-40.30034391s-18.01851702-40.30034388-40.21990407-40.30034388h-320.95483456c-167.71700001 0-304.14291466 136.66723406-304.14291466 304.7059933V1026.81477221h433.08792714c22.20138704 0 40.21990407-18.01851702 40.21990406-40.30034387-0.0804398-22.28182684-18.09895683-40.30034388-40.30034387-40.3003439zM982.25111849 605.63193669c-59.36457842-59.44501823-155.97278803-59.44501823-215.33736644 0-49.55092183 49.63136163-57.59490265 125.08390169-24.53414147 183.3223228l-168.76271752 169.08447674c-15.68576258 15.76620238-15.68576258 41.2656216 0 56.95138419 7.88310119 7.88310119 18.17939664 11.8246518 28.47569208 11.82465179s20.59259088-3.9415506 28.47569208-11.82465179l57.35358323-57.43402302 12.87036929 12.8703693c7.88310119 7.88310119 18.17939664 11.8246518 28.47569208 11.82465179s20.59259088-3.9415506 28.47569211-11.82465179c15.68576258-15.76620238 15.68576258-41.2656216 0-56.95138418l-12.87036931-12.87036931 54.45775012-54.61862973c22.68402591 13.03124892 48.50520432 20.10995203 75.37210025 20.10995203 40.70254294 0 78.9114518-15.84664222 107.70890312-44.72453331 59.20369881-59.44501823 59.20369881-156.29454726-0.16087962-215.73956551z m-56.87094436 158.78818132c-27.99305324 28.07349303-73.60242447 28.07349303-101.5954777 0-27.99305324-28.07349303-27.99305324-73.76330409 0-101.75635733 13.99652662-13.99652662 32.41724267-21.07522974 50.83795876-21.07522973s36.76099232 6.9982633 50.83795875 21.07522973c27.91261343 27.99305324 27.91261343 73.68286427-0.08043981 101.75635733z" p-id="1279"></path></svg>