<?xml version="1.0" standalone="no"?><!DOCTYPE svg PUBLIC "-//W3C//DTD SVG 1.1//EN" "http://www.w3.org/Graphics/SVG/1.1/DTD/svg11.dtd"><svg t="1606448495238" class="icon" viewBox="0 0 1024 1024" version="1.1" xmlns="http://www.w3.org/2000/svg" p-id="1090" xmlns:xlink="http://www.w3.org/1999/xlink" width="200" height="200"><defs><style type="text/css"></style></defs><path d="M894.5 169.8125H129.5c-33.5625 0-60.9375 27.375-60.9375 60.9375v562.5c0 33.5625 27.375 60.9375 60.9375 60.9375h358.96875c12.9375 0 23.4375-10.5 23.4375-23.4375s-10.5-23.4375-23.4375-23.4375H129.5c-7.78125 0-14.0625-6.28125-14.0625-14.0625V230.75c0-7.78125 6.28125-14.0625 14.0625-14.0625h765c7.78125 0 14.0625 6.28125 14.0625 14.0625v554.0625c0 12.46875-10.125 22.5-22.5 22.5H766.71875c-12.9375 0-23.4375 10.5-23.4375 23.4375s10.5 23.4375 23.4375 23.4375H886.0625c38.25 0 69.375-31.125 69.375-69.375V230.75c0-33.5625-27.375-60.9375-60.9375-60.9375z" p-id="1091"></path><path d="M466.0625 394.4375c0-63.5625-51.75-115.3125-115.3125-115.3125s-115.3125 51.75-115.3125 115.3125 51.75 115.3125 115.3125 115.3125 115.3125-51.65625 115.3125-115.3125z m-183.75 0c0-37.78125 30.65625-68.4375 68.4375-68.4375s68.4375 30.65625 68.4375 68.4375-30.65625 68.4375-68.4375 68.4375-68.4375-30.65625-68.4375-68.4375z m68.4375 142.5c-101.8125 0-184.59375 82.78125-184.59375 184.59375 0 12.9375 10.5 23.4375 23.4375 23.4375s23.4375-10.5 23.4375-23.4375c0-75.9375 61.78125-137.71875 137.71875-137.71875s137.71875 61.78125 137.71875 137.71875c0 12.9375 10.5 23.4375 23.4375 23.4375s23.4375-10.5 23.4375-23.4375c0-101.71875-82.78125-184.59375-184.59375-184.59375z m283.96875-134.25h121.875c12.9375 0 23.4375-10.5 23.4375-23.4375s-10.5-23.4375-23.4375-23.4375h-121.875c-12.9375 0-23.4375 10.5-23.4375 23.4375 0 12.84375 10.59375 23.4375 23.4375 23.4375z m-23.4375 149.15625c0 12.84375 10.5 23.4375 23.4375 23.4375h206.25c12.9375 0 23.4375-10.5 23.4375-23.4375s-10.5-23.4375-23.4375-23.4375h-206.25c-12.84375 0-23.4375 10.59375-23.4375 23.4375z m253.125 103.125c0-12.9375-10.5-23.4375-23.4375-23.4375h-206.25c-12.9375 0-23.4375 10.5-23.4375 23.4375 0 12.84375 10.5 23.4375 23.4375 23.4375h206.25c12.9375 0 23.4375-10.5 23.4375-23.4375z" p-id="1092"></path></svg>