<?xml version="1.0" standalone="no"?><!DOCTYPE svg PUBLIC "-//W3C//DTD SVG 1.1//EN" "http://www.w3.org/Graphics/SVG/1.1/DTD/svg11.dtd"><svg t="1606463170646" class="icon" viewBox="0 0 1024 1024" version="1.1" xmlns="http://www.w3.org/2000/svg" p-id="883" xmlns:xlink="http://www.w3.org/1999/xlink" width="200" height="200"><defs><style type="text/css"></style></defs><path d="M117.04630293 360.52247253a37.23636373 37.23636373 0 0 1 37.23636374 37.23636374v234.68838826a37.23636373 37.23636373 0 0 1-74.47272747 0V397.75883627a37.23636373 37.23636373 0 0 1 37.23636373-37.23636374zM870.21381867 15.515152H215.00276373a135.39141867 135.39141867 0 0 0-135.19282453 135.19282347v71.4441696a37.23636373 37.23636373 0 0 0 74.47272747 0V150.70797547c0-33.4630784 27.25701867-60.72009707 60.72009706-60.72009707h655.21105494c33.4630784 0 60.72009707 27.25701867 60.720096 60.72009707v722.58404906c0 33.4630784-27.25701867 60.72009707-60.720096 60.72009707H215.00276373a60.81939413 60.81939413 0 0 1-60.72009706-60.72009707v-77.6005824a36.7398784 36.7398784 0 0 0-32.4204608-36.24339413h89.0693824a37.23636373 37.23636373 0 0 0 0-74.4727264H55.8297216a37.23636373 37.23636373 0 0 0 0 74.4727264h56.4503264a36.83917547 36.83917547 0 0 0-32.42045973 36.24339413v77.6005824A135.2921216 135.2921216 0 0 0 215.00276373 1008.484848h655.21105494a135.39141867 135.39141867 0 0 0 135.19282346-135.19282347V150.70797547A135.39141867 135.39141867 0 0 0 870.21381867 15.515152zM373.6793216 665.26487253l93.68669013-273.21561173-44.38574506-120.2486304a37.23636373 37.23636373 0 0 1 34.90288533-50.0953216h189.8061568a37.18671467 37.18671467 0 0 1 34.90288533 50.0953216l-44.43539413 120.2486304 93.6866912 273.21561173a37.23636373 37.23636373 0 0 1-14.7456 43.1941824l-148.94545493 98.0557568a37.3356608 37.3356608 0 0 1-41.9529696-0.7447264L387.38230293 707.71432747a37.23636373 37.23636373 0 0 1-13.70298133-42.44945494z m137.675248-369.13648426l21.49779413 58.18802346h39.91738134l21.5474432-58.18802346h-82.96261867z m-58.18802453 366.90230293l95.2754432 67.27369707 103.6163872-68.21701867-79.9837088-233.24858133h-38.57687254l-80.33124906 234.19190293zM55.8297216 353.32344213h155.15151467a37.23636373 37.23636373 0 0 0 0-74.47272746H55.8297216a37.23636373 37.23636373 0 0 0 0 74.47272746z" p-id="884"></path></svg>