<?xml version="1.0" standalone="no"?><!DOCTYPE svg PUBLIC "-//W3C//DTD SVG 1.1//EN" "http://www.w3.org/Graphics/SVG/1.1/DTD/svg11.dtd"><svg t="1606988063778" class="icon" viewBox="0 0 1024 1024" version="1.1" xmlns="http://www.w3.org/2000/svg" p-id="918" xmlns:xlink="http://www.w3.org/1999/xlink" width="200" height="200"><defs><style type="text/css"></style></defs><path d="M232.39745422 671.86003968c-7.72859107 0-15.14049309-3.07024555-20.60569372-8.53544733L23.08631097 474.60866389c-5.46636573-5.46636573-8.53661127-12.88059563-8.53428224-20.61035064 0.00116395-7.73091897 3.07373853-15.14282098 8.5412682-20.60685768l0.84527786-0.84527786c11.38214798-11.37632711 29.83389639-11.37167019 41.21138745 0.01397191 2.03285959 2.03402354 3.70245859 4.29391986 5.00763307 6.69818993l162.23985891 162.24917277 127.90945451-127.91760441-168.10091975-168.0997558c-11.37982009-11.37982009-11.37982009-29.83040341 0-41.21138745s29.83040341-11.37982009 41.21138745 0l188.70661347 188.70428444c11.37982009 11.37982009 11.37982009 29.83040341 0 41.21022351L253.00431189 663.32459235C247.53911125 668.78979299 240.12720925 671.86003968 232.39745422 671.86003968z" p-id="919"></path><path d="M493.49527666 420.85549056c-7.45847467 0-14.91461917-2.84437277-20.60569373-8.53544733L284.18646243 223.61459371c-11.37982009-11.37982009-11.37982009-29.83040341 0-41.21138745L453.30497536 13.28585728c5.46403669-5.46520064 12.87710379-8.53544733 20.60569373-8.53544733 0 0 0 0 0 0 7.72859107 0 15.14049309 3.07024555 20.60569372 8.53544733l188.70428444 188.71476338c5.46403669 5.46520064 8.53428224 12.87710379 8.53428224 20.60569372 0 7.72859107-3.07024555 15.14049309-8.53544732 20.60452978L514.10097038 412.32120718C508.41106091 418.00995385 500.95258624 420.85549056 493.49527666 420.85549056zM346.00354361 203.00889998L493.49644061 350.50528995l127.90829056-127.90014065L473.91066909 75.10293845 346.00354361 203.00889998z" p-id="920"></path><path d="M550.76229347 1017.75347029C550.76112839 1017.75347029 550.76229347 1017.75347029 550.76229347 1017.75347029c-7.72975502 0-15.14165703-3.07141063-20.60685766-8.53544732L341.47210695 820.51373853c-11.37865501-11.37982009-11.37865501-29.83040341 0.00116395-41.21138746l169.11734897-169.119678c5.46520064-5.46403669 12.87826773-8.53428224 20.60569373-8.53428224 0 0 0 0 0.00116395 0 7.72859107 0 15.14049309 3.07141063 20.60569372 8.53544732L740.48650013 798.88695865c11.37749106 11.37982009 11.37749106 29.83040341-0.00116395 41.2102235L571.3679872 1009.21802411C565.90278542 1014.68322475 558.49088341 1017.75347029 550.76229347 1017.75347029zM403.28802418 799.90920875l147.47543324 147.49173304 127.90596153-127.9094545L531.19515079 672.00091933 403.28802418 799.90920875z" p-id="921"></path><path d="M811.88223773 766.77220807c-7.45847467 0-14.91578425-2.84437277-20.60569373-8.53544732l-188.70428445-188.70894251c-11.37865501-11.37865501-11.37865501-29.82923947 0-41.2102235l169.12084196-169.12899186c5.46403669-5.46520064 12.87826773-8.53544733 20.60569372-8.53544733 0.00116395 0 0.00116395 0 0.00116395 0 7.72975502 0 15.14165703 3.07141063 20.60569373 8.53661128l188.68099868 188.71592732c11.37865501 11.38098403 11.37749106 29.83156736-0.00349298 41.21138745s-29.83156736 11.37749106-41.21138744-0.00349298L792.29763015 421.00801309 664.38933959 548.92328846 832.48909539 717.02770119c11.37982009 11.37982009 11.37865501 29.83040341-0.00116394 41.21138745C826.79918592 763.92783531 819.33954731 766.77220807 811.88223773 766.77220807z" p-id="922"></path><path d="M715.39244942 485.59378773c-7.45730958 0-14.91461917-2.84437277-20.60452977-8.53428224L551.28040448 333.56246926c-11.37982009-11.37865501-11.38098403-29.83040341-0.00116395-41.21138745 11.37865501-11.37982009 29.82923947-11.38098403 41.21138745-0.00116394l143.50751517 143.49703623c11.37982009 11.37865501 11.38098403 29.83040341 0.00116394 41.21138745C730.30939762 482.74825102 722.85092295 485.59378773 715.39244942 485.59378773z" p-id="923"></path><path d="M453.45866297 733.1764736c-7.45730958 0-14.91461917-2.84437277-20.60452978-8.53428224L293.02462578 584.82316288c-11.37982009-11.37865501-11.38098403-29.83040341-0.00116395-41.21138745 11.37865501-11.38098403 29.83040341-11.37982009 41.21138745-0.00116394l139.82834347 139.81902848c11.37982009 11.37865501 11.38098403 29.83040341 0.00116394 41.21138744C468.37444608 730.33210083 460.91597255 733.1764736 453.45866297 733.1764736z" p-id="924"></path></svg>