<?xml version="1.0" standalone="no"?><!DOCTYPE svg PUBLIC "-//W3C//DTD SVG 1.1//EN" "http://www.w3.org/Graphics/SVG/1.1/DTD/svg11.dtd"><svg t="1606448506212" class="icon" viewBox="0 0 1126 1024" version="1.1" xmlns="http://www.w3.org/2000/svg" p-id="1479" xmlns:xlink="http://www.w3.org/1999/xlink" width="219.921875" height="200"><defs><style type="text/css"></style></defs><path d="M715.19213867 415.96575927a18.53942872 18.53942872 0 0 0 18.31695557 18.68774415h205.12023925A18.53942872 18.53942872 0 0 0 956.94628906 415.96575927a18.53942872 18.53942872 0 0 0-18.31695557-18.68774414h-205.12023925a18.53942872 18.53942872 0 0 0-18.35403442 18.68774414z m220.10009766 58.47335816H692.94482422c-11.97647094 0-21.65405273 8.41690063-21.65405274 18.65066528 0 10.27084351 9.64050293 18.65066528 21.65405274 18.65066529h242.34741211c11.93939209 0 21.65405273-8.37982177 21.65405273-18.65066529 0-10.23376465-9.71466065-18.65066528-21.65405273-18.65066528z m3.33709716 77.12402344h-205.12023925a18.53942872 18.53942872 0 0 0-18.35403442 18.65066528 18.53942872 18.53942872 0 0 0 18.35403442 18.65066528h205.12023925A18.53942872 18.53942872 0 0 0 956.94628906 570.21380615a18.53942872 18.53942872 0 0 0-18.31695557-18.68774414zM534.4697876 882.78857422H388.63864136C250.44573974 882.78857422 141.21142578 882.78857422 141.21142578 810.11401367v-14.57199096c0-136.26480102 111.01409912-247.09350586 247.46429443-247.09350586h145.75698853c136.45019531 0 247.50137329 110.82870484 247.50137329 247.09350586v14.53491211C781.89700318 882.78857422 667.21209717 882.78857422 534.43270874 882.78857422z m-147.12890625-293.40499878c-114.75906372 0-208.16070557 92.99377442-208.16070557 207.27081299v14.83154297c0 29.62600708 120.28381348 29.62600708 208.16070557 29.62600708h148.42666626c72.74871826 0 208.16070557 0 208.16070557-29.66308594v-14.75738525c0-114.31411743-93.40164185-207.27081299-208.16070557-207.27081299H387.34088135z m66.92733764-55.58120727a196.5550232 196.5550232 0 0 1-196.40670776-196.29547119A196.51794434 196.51794434 0 0 1 454.26821899 141.21142578a196.51794434 196.51794434 0 0 1 196.40670777 196.29547119 196.59210205 196.59210205 0 0 1-196.40670777 196.29547119z m-155.95367431-196.88873291c0 85.57800293 69.96780396 155.21209717 155.95367431 155.21209716 86.02294922 0 155.99075317-69.63409424 155.99075318-155.21209716 0-85.61508179-69.96780396-155.21209717-155.99075318-155.21209718S298.31454468 251.29855347 298.31454468 336.91363526z" p-id="1480"></path></svg>