<?xml version="1.0" standalone="no"?><!DOCTYPE svg PUBLIC "-//W3C//DTD SVG 1.1//EN" "http://www.w3.org/Graphics/SVG/1.1/DTD/svg11.dtd"><svg t="1606463179191" class="icon" viewBox="0 0 1024 1024" version="1.1" xmlns="http://www.w3.org/2000/svg" p-id="1143" xmlns:xlink="http://www.w3.org/1999/xlink" width="200" height="200"><defs><style type="text/css"></style></defs><path d="M513.13777778 1017.51466667c-281.82755555 0-509.72444445-227.89688889-509.72444445-509.72444445S231.31022222 4.77866667 513.13777778 4.77866667s509.72444445 227.89688889 509.72444444 509.72444444-227.89688889 503.01155555-509.72444444 503.01155556z m0-945.37955556c-241.43644445 0-442.368 194.21866667-442.368 442.368C70.76977778 755.82577778 264.98844445 956.87111111 513.13777778 956.87111111c241.43644445 0 442.368-194.21866667 442.368-442.368S754.57422222 72.13511111 513.13777778 72.13511111z m0 489.472c-107.17866667 0-194.21866667-87.04-194.21866667-194.21866666S405.95911111 165.888 513.13777778 165.888s194.21866667 87.04 194.21866667 194.21866667S620.31644445 561.60711111 513.13777778 561.60711111z m0-328.93155556c-73.50044445 0-127.43111111 60.07466667-127.43111111 127.43111112s53.93066667 134.144 127.43111111 134.144 127.43111111-60.07466667 127.43111111-127.43111112-53.93066667-134.144-127.43111111-134.144z m0 784.83911112c-154.39644445 0-294.68444445-66.78755555-389.00622223-180.79288889l-13.42577777-20.25244445 13.42577777-20.25244444c87.04-134.144 234.60977778-214.47111111 395.71911112-214.47111111 154.39644445 0 301.51111111 73.50044445 389.00622222 207.75822222l13.42577778 20.25244445-13.42577778 20.25244444C814.64888889 950.15822222 667.53422222 1017.51466667 513.13777778 1017.51466667zM191.488 809.18755555C271.81511111 896.22755555 392.41955555 950.04444445 513.13777778 950.04444445c127.43111111 0 248.14933333-53.93066667 328.36266667-147.68355556-80.21333333-100.352-194.21866667-154.28266667-321.64977778-154.28266667s-248.14933333 60.64355555-328.36266667 161.10933333z" p-id="1144"></path></svg>